PathFileType	4	(X/Y/Z)	Patient4_TMGait_0pt4_03_right_17.trc.trc
DataRate	CameraRate	NumFrames	NumMarkers	Units	OrigDataRate	OrigDataStartFrame	OrigNumFrames
74.866310160428	74.866310160428	5	33	mm	74.866310160428	89	       141
Frame#	Time	Sacral			L.Shoulder			Chest			R.Shoulder			Neck			R.ASIS			L.ASIS			R.Thigh.Superior			R.Thigh.Lateral			R.Thigh.Inferior			R.Patella			L.Thigh.Superior			L.Thigh.Lateral			L.Thigh.Inferior			L.Patella			L.Shank.Superior			L.Shank.Lateral			L.Shank.Inferior			R.Shank.Superior			R.Shank.Lateral			R.Shank.Inferior			R.Heel			R.Midfoot.Superior			R.Midfoot.Lateral			R.Toe			L.Heel			L.Midfoot.Lateral			L.Midfoot.Superior			L.Toe			L.Elbow			L.Wrist			R.Elbow			R.Wrist			
		X1	Y1	Z1	X2	Y2	Z2	X3	Y3	Z3	X4	Y4	Z4	X5	Y5	Z5	X6	Y6	Z6	X7	Y7	Z7	X8	Y8	Z8	X9	Y9	Z9	X10	Y10	Z10	X11	Y11	Z11	X12	Y12	Z12	X13	Y13	Z13	X14	Y14	Z14	X15	Y15	Z15	X16	Y16	Z16	X17	Y17	Z17	X18	Y18	Z18	X19	Y19	Z19	X20	Y20	Z20	X21	Y21	Z21	X22	Y22	Z22	X23	Y23	Z23	X24	Y24	Z24	X25	Y25	Z25	X26	Y26	Z26	X27	Y27	Z27	X28	Y28	Z28	X29	Y29	Z29	X30	Y30	Z30	X31	Y31	Z31	X32	Y32	Z32	X33	Y33	Z33	

89	22.665428571429	861.283235606706	1008.637111374058	456.639443669098	1033.001198282334	1426.408616472592	249.582335450936	1149.069534967347	1361.596547479844	402.995711492528	1083.988616163988	1441.934777828865	581.749750736644	1029.929556761496	1494.191823928146	404.499837730883	1093.967089213776	941.034611777613	564.294471031227	1067.967044914493	959.027146156830	289.010621272938	1122.592088389469	733.324169516753	542.582491895072	1040.051094172223	628.740875903946	613.132187669954	1115.633138451986	566.320578588259	538.333527569700	1106.072341957594	461.911682153451	560.574770207517	1132.347139087808	758.461745426773	317.965902481648	1054.529548363953	635.888334386955	258.091787278073	1149.033199741171	566.157672980375	317.601756921363	1155.976052746615	495.203547485196	324.660459690425	1129.035958580606	421.589794897080	316.804998772902	1040.366773118995	306.592218956571	266.922797539214	1094.796938725119	194.507472062881	332.991311712322	1034.158331652937	392.469693616145	568.094142749558	919.205042897786	341.369467269497	630.876152905006	912.734990587240	232.260350177075	579.263144681914	717.335544394316	140.977469647014	555.060141542708	891.195216794634	111.632208184418	591.253076218498	786.384491703935	92.647826800168	626.873478253761	975.716320453611	34.476941217647	616.872424145528	970.609859097364	38.852445630172	375.900966453517	1041.247044143221	35.652471200961	292.559372336625	1125.508868952598	96.697252224115	317.396286651011	1253.074449609689	43.516968493369	283.043253098478	958.782705754176	1078.294131193295	143.846464797473	1040.426526418978	828.057652390300	129.012438463889	1097.648493573032	1095.762959248315	708.843238711990	1282.545864760469	924.883409138665	651.229081255016	
90	22.678785714286	860.731353131824	1008.237612463074	453.095069195740	1033.799655028558	1426.369655120817	246.434475804897	1148.828016860024	1361.580028658749	400.641267837787	1082.497860559692	1441.771772273411	579.006984611979	1029.689380064542	1494.096607510637	401.399393525792	1093.042896149990	940.991479739089	561.086735483849	1068.230911063793	958.970938077058	286.312390885437	1127.438377102124	735.522061367091	540.156993819422	1048.203700313789	629.178214693362	611.228027010770	1125.817249892149	568.196341434370	536.695275953044	1117.768225963440	462.569250564096	559.668278558661	1131.760688296893	757.723448281743	315.407112566198	1053.362996260705	635.570124479302	255.840107632756	1147.082344632642	565.392630631378	315.802494863127	1153.502325684606	494.409009768222	323.096958578403	1126.227886351835	420.752283346324	315.468135915088	1037.050346820203	306.103051400514	265.772629933299	1090.422896036427	194.007753549864	332.519313950189	1044.080309061697	393.666695815609	567.265296735168	927.343663401385	346.379798999603	629.894214503186	917.999003797547	237.183902399652	579.254437895080	720.307098998035	154.444507134191	554.967056180182	892.057675414464	115.182528693442	591.159401076834	786.369014095494	102.319326927544	626.815206258354	971.207126921345	33.403836186964	616.975239708315	965.241675292709	38.822834566236	375.792795090365	1035.866908765292	35.575118556864	292.424097265924	1120.189690148161	96.541909742829	317.320483547586	1247.768472236294	43.193433059780	282.981151147692	964.623686828144	1077.931319009418	137.950178055627	1053.407742530889	830.070676823688	122.940786100669	1091.261377724439	1095.663161041474	706.995939535269	1269.942597173237	915.849908413516	655.161331550675	
91	22.692142857143	860.082466581506	1007.746441288301	449.701015981298	1034.547345307852	1426.246810269630	243.432420343100	1148.473609320289	1361.461543073182	398.467723035512	1080.845975354470	1441.526952693996	576.416333521221	1029.423109816388	1493.939145618128	398.440658916149	1091.984728894469	940.931592512743	557.981418221004	1068.359117510882	958.854697370963	283.783461587731	1132.262408335985	738.057640645205	537.768235037217	1056.506676712424	629.942213531827	609.389581753803	1136.077889299816	570.553183834510	535.048366916180	1129.684289660711	463.779996639381	558.591373954711	1131.122799897613	757.030435276524	313.058269134662	1052.219359076541	635.228225875821	253.728252510233	1145.216233397428	564.635555946193	314.068322964645	1151.153944573686	493.613522246583	321.598718694365	1123.503256347292	419.910309680295	314.198670918000	1033.776890535749	305.646185273618	264.676703866692	1086.059361460971	193.513678398314	332.060085510377	1054.391013229556	395.289164986566	566.283824291727	936.088243894822	351.700435077238	628.848588026355	923.900952660086	242.532281737009	579.100255990525	724.391630644274	168.506498796015	554.686431701952	893.595803671247	119.393041174921	591.030175669408	787.237633942262	112.720901731938	626.627375886349	967.082699815508	32.283290215983	617.109587779285	959.894281118831	38.807983707976	375.675943324980	1030.508448194440	35.515224467786	292.285890676540	1114.888595731012	96.408899774534	317.230966057951	1242.481562510303	42.900742275784	282.908362895255	970.962710970897	1077.539692622974	132.092734197355	1066.536641675453	832.172110030160	117.110472878217	1084.457951605942	1095.525563735334	705.253458512965	1256.581101723255	907.302857262769	659.410030507783	
92	22.705500000000	859.348361208144	1007.203721047219	446.471309993804	1035.236552512531	1426.072680331427	240.585913316968	1148.001158664328	1361.285973600228	396.484732680853	1079.025689284581	1441.248210789436	573.983078587275	1029.129067173565	1493.756829761583	395.631678765475	1090.841202472162	940.930104986247	555.080493432612	1068.362080778529	958.704624913500	281.444559985502	1136.947614649835	740.924566625364	535.417262155761	1064.783947983542	631.078779067285	607.615392636273	1146.196075180055	573.403891346344	533.384092314339	1141.600975467931	465.560305132929	557.360356967609	1130.426999693443	756.374090832858	310.862420727195	1051.027695299543	634.865576454104	251.767700365916	1143.386077978858	563.880276203373	312.377040613442	1148.882053211455	492.824282241114	320.159525092835	1120.818648623755	419.076787810494	312.998380688566	1030.508269563949	305.227989220703	263.642782560691	1081.687505245050	193.033820426103	331.615350750174	1064.886143201625	397.357775501032	565.170385006167	945.242473385822	357.258488322537	627.735184896740	930.341899621887	248.204164535566	578.793257439308	729.514677975579	182.749259785261	554.207731630727	895.858882064747	124.182714101079	590.864547480661	789.037335916193	123.536361569904	626.290484583438	963.555314665399	31.239951894509	617.234203595030	954.563657575684	38.808647140367	375.553791902167	1025.167364142048	35.471503958842	292.148166868885	1109.602547257436	96.296003653511	317.127628511276	1237.208386764227	42.634692361032	282.823644897236	977.787475297088	1077.165340133194	126.331942194002	1079.774183282854	834.367179932019	111.589440164126	1077.295106096543	1095.406843129052	703.606316552522	1242.511501730131	899.282687162241	663.937870772659	
93	22.718857142857	858.541388770833	1006.656530897332	443.415495052201	1035.871124668527	1425.887454016853	237.901779122478	1147.414070191445	1361.103274409575	394.699916963725	1077.036714244996	1440.986930194686	571.709407621160	1028.804804479653	1493.590536182057	392.978826020316	1089.660199975397	941.057701749060	552.467215494152	1068.254351671516	958.551383668180	279.307747439823	1141.388750057198	744.098866175526	533.114250512315	1072.866246054448	632.612543467552	605.909756978111	1155.971294499278	576.734382578963	531.705677778135	1153.307560653959	467.902118689372	556.010671611550	1129.660667721985	755.741961431382	308.771656818876	1049.718103241771	634.491901201759	249.966129541803	1141.528685270077	563.123330398282	310.724739874803	1146.616846579929	492.048479647945	318.782674077847	1118.114552383425	418.266839115160	311.871745660242	1027.196127525687	304.853563424135	262.679491069376	1077.285358822318	192.577584718483	331.187614056204	1075.370407615793	399.867519957640	563.964275717852	954.607074362456	362.955436548231	626.560860045857	937.225116388952	254.060856818067	578.344200290461	735.558189356997	196.679213525616	553.550493987333	898.908494065341	129.402781346496	590.660602535009	791.806688158489	134.363833273307	625.803706857679	960.906261519703	30.417374002711	617.293954233809	949.243973893448	38.824506206736	375.429961702969	1019.837952156000	35.442036942056	292.014335212300	1104.326625100583	96.200564907566	317.011683057553	1231.941613215541	42.391276941808	282.727687325141	985.059079569211	1076.865573019535	120.733658030331	1093.068003547762	836.673490979606	106.436735264483	1069.846651251035	1095.365986269896	702.040512253742	1227.802483050493	891.831954344206	668.687378655054	
